<svg width="66" height="68" viewBox="0 0 66 68" fill="none" xmlns="http://www.w3.org/2000/svg">
<path d="M31.9228 17.1045L31.9229 17.1044C34.0383 16.3635 36.1032 17.8638 36.1251 20.1253M31.9228 17.1045L31.924 36.1714C34.0379 36.9123 36.1057 35.4123 36.1251 33.15C36.1382 31.6337 36.1351 30.1158 36.1321 28.6009C36.1308 27.9457 36.1295 27.2911 36.1295 26.6374V26.6354V26.6334V26.6314V26.6295V26.6275V26.6255V26.6236V26.6216V26.6196V26.6176V26.6157V26.6137V26.6117V26.6097V26.6078V26.6058V26.6038V26.6018V26.5999V26.5979V26.5959V26.5939V26.592V26.59V26.588V26.586V26.5841V26.5821V26.5801V26.5781V26.5762V26.5742V26.5722V26.5702V26.5683V26.5663V26.5643V26.5623V26.5604V26.5584V26.5564V26.5544V26.5525V26.5505V26.5485V26.5465V26.5446V26.5426V26.5406V26.5386V26.5367V26.5347V26.5327V26.5308V26.5288V26.5268V26.5248V26.5229V26.5209V26.5189V26.5169V26.515V26.513V26.511V26.509V26.5071V26.5051V26.5031V26.5011V26.4992V26.4972V26.4952V26.4932V26.4913V26.4893V26.4873V26.4853V26.4834V26.4814V26.4794V26.4774V26.4755V26.4735V26.4715V26.4695V26.4676V26.4656V26.4636V26.4616V26.4597V26.4577V26.4557V26.4537V26.4518V26.4498V26.4478V26.4458V26.4439V26.4419V26.4399V26.4379V26.436V26.434V26.432V26.43V26.4281V26.4261V26.4241V26.4222V26.4202V26.4182V26.4162V26.4143V26.4123V26.4103V26.4083V26.4064V26.4044V26.4024V26.4004V26.3985V26.3965V26.3945V26.3925V26.3906V26.3886V26.3866V26.3846V26.3827V26.3807V26.3787V26.3767V26.3748V26.3728V26.3708V26.3688V26.3669V26.3649V26.3629V26.3609V26.359V26.357V26.355V26.353V26.3511V26.3491V26.3471V26.3451V26.3432V26.3412V26.3392V26.3372V26.3353V26.3333V26.3313V26.3293V26.3274V26.3254V26.3234V26.3215V26.3195V26.3175V26.3155V26.3136V26.3116V26.3096V26.3076V26.3057V26.3037V26.3017V26.2997V26.2978V26.2958V26.2938V26.2918V26.2899V26.2879V26.2859V26.2839V26.282V26.28V26.278V26.276V26.2741V26.2721V26.2701V26.2681V26.2662V26.2642V26.2622V26.2602V26.2583V26.2563V26.2543V26.2523V26.2504V26.2484V26.2464V26.2444V26.2425V26.2405V26.2385V26.2365V26.2346V26.2326V26.2306V26.2287V26.2267V26.2247V26.2227V26.2208V26.2188V26.2168V26.2148V26.2129V26.2109V26.2089V26.2069V26.205V26.203V26.201V26.199V26.1971V26.1951V26.1931V26.1911V26.1892V26.1872V26.1852V26.1832V26.1813V26.1793V26.1773V26.1753V26.1734V26.1714V26.1694V26.1674V26.1655V26.1635V26.1615V26.1595V26.1576V26.1556V26.1536V26.1516V26.1497V26.1477V26.1457V26.1437V26.1418V26.1398V26.1378V26.1358V26.1339V26.1319V26.1299V26.128V26.126V26.124V26.122V26.1201V26.1181V26.1161V26.1141V26.1122V26.1102V26.1082V26.1062V26.1043V26.1023V26.1003V26.0983V26.0964V26.0944V26.0924V26.0904V26.0885V26.0865V26.0845V26.0825V26.0806V26.0786V26.0766V26.0746V26.0727V26.0707V26.0687V26.0667V26.0648V26.0628V26.0608V26.0588V26.0569V26.0549V26.0529V26.0509V26.049V26.047V26.045V26.043V26.0411V26.0391V26.0371V26.0352V26.0332V26.0312V26.0292V26.0273V26.0253V26.0233V26.0213V26.0194V26.0174V26.0154V26.0134V26.0115V26.0095V26.0075V26.0055V26.0036V26.0016V25.9996V25.9976V25.9957V25.9937V25.9917V25.9897V25.9878V25.9858V25.9838V25.9818V25.9799V25.9779V25.9759V25.9739V25.972V25.97V25.968V25.966V25.9641V25.9621V25.9601V25.9581V25.9562V25.9542V25.9522V25.9502V25.9483V25.9463V25.9443V25.9423V25.9404V25.9384V25.9364V25.9345V25.9325V25.9305V25.9285V25.9266V25.9246V25.9226V25.9206V25.9187V25.9167V25.9147V25.9127V25.9108V25.9088V25.9068V25.9048V25.9029V25.9009V25.8989V25.8969V25.895V25.893V25.891V25.889V25.8871V25.8851V25.8831V25.8811V25.8792V25.8772V25.8752V25.8732V25.8713V25.8693V25.8673V25.8653V25.8634V25.8614V25.8594V25.8574V25.8555V25.8535V25.8515V25.8495V25.8476V25.8456V25.8436V25.8416V25.8397V25.8377V25.8357V25.8338V25.8318V25.8298V25.8278V25.8259V25.8239V25.8219V25.8199V25.818V25.816V25.814V25.812V25.8101V25.8081V25.8061V25.8041V25.8022V25.8002V25.7982V25.7962V25.7943V25.7923V25.7903V25.7883V25.7864V25.7844V25.7824V25.7804V25.7785V25.7765V25.7745V25.7725V25.7706V25.7686V25.7666V25.7646V25.7627V25.7607V25.7587V25.7567V25.7548V25.7528V25.7508V25.7488V25.7469V25.7449V25.7429V25.7409V25.739V25.737V25.735V25.7331V25.7311V25.7291V25.7271V25.7252V25.7232V25.7212V25.7192V25.7173V25.7153V25.7133V25.7113V25.7094V25.7074V25.7054V25.7034V25.7015V25.6995V25.6975V25.6955V25.6936V25.6916V25.6896V25.6876V25.6857V25.6837V25.6817V25.6797V25.6778V25.6758V25.6738V25.6718V25.6699V25.6679V25.6659V25.6639V25.662V25.66V25.658V25.656V25.6541V25.6521V25.6501V25.6481V25.6462V25.6442V25.6422V25.6402V25.6383V25.6363V25.6343V25.6324V25.6304V25.6284V25.6264C36.1295 25.075 36.1308 24.5224 36.1321 23.9692C36.1351 22.6894 36.1382 21.4061 36.1251 20.1253M31.9228 17.1045C30.621 17.5607 29.8574 18.76 29.8549 20.2174V20.2174M31.9228 17.1045L29.8549 20.2174M36.1251 20.1253L35.6251 20.1301L36.1251 20.125C36.1251 20.1251 36.1251 20.1252 36.1251 20.1253ZM29.8549 20.2174C29.8518 22.2082 29.8525 24.1993 29.8532 26.1898M29.8549 20.2174L29.8532 26.1898M29.8532 26.1898C29.8535 27.0428 29.8538 27.8957 29.8538 28.7485M29.8532 26.1898L29.8538 28.7485M29.8538 28.7485C29.8538 29.1808 29.853 29.614 29.8523 30.0477M29.8538 28.7485L29.8523 30.0477M29.8523 30.0477C29.8504 31.0803 29.8486 32.1158 29.8571 33.1499M29.8523 30.0477L29.8571 33.1499M29.8571 33.1499C29.8686 34.5465 30.6636 35.7299 31.9239 36.1714L29.8571 33.1499ZM34.2839 44.6945H31.7031C31.4689 44.6652 31.2391 44.6388 31.0123 44.6127C30.4988 44.5536 30.0001 44.4962 29.4973 44.4117C24.908 43.6374 20.9231 41.6559 17.6372 38.3784C12.6823 33.435 10.4761 27.4533 11.1046 20.4767C11.492 16.1761 13.0773 12.3062 15.8292 8.98284L15.8292 8.98279C20.8546 2.91239 27.3111 0.144436 35.1759 0.786222L35.1759 0.786226C38.7998 1.08161 42.1418 2.31829 45.1507 4.37859L45.1507 4.37863C50.3233 7.91935 53.5243 12.7536 54.6614 18.9354L54.6614 18.9355C54.7639 19.4921 54.8316 20.0455 54.9015 20.6158C54.9328 20.8715 54.9645 21.1306 55 21.3948V23.9708C54.9885 24.0693 54.9764 24.1698 54.9642 24.2713C54.9409 24.4647 54.9172 24.6617 54.8961 24.8555L54.896 24.8564C54.5077 28.4887 53.3423 31.8401 51.2862 34.8445C47.7456 40.0176 42.9128 43.2198 36.7338 44.3569L36.7337 44.3569C36.1768 44.4595 35.6235 44.5273 35.0531 44.5972C34.8006 44.6281 34.5448 44.6595 34.2839 44.6945ZM32.9785 8.99099C31.2666 9.00018 29.8479 10.4288 29.8571 12.1389C29.8663 13.8507 31.2935 15.2696 33.0048 15.2604C34.7167 15.2513 36.1354 13.8227 36.1262 12.1126C36.117 10.4007 34.6898 8.98179 32.9785 8.99099Z" fill="#EEF2F5" stroke="black"/>
<path d="M9.23238 53.6956V60.1956H8.43238V53.6956H9.23238ZM11.4778 57.8256V60.1956H10.7078V55.5956H11.4078V56.5356C11.5811 56.1556 11.8144 55.8789 12.1078 55.7056C12.4078 55.5322 12.7244 55.4456 13.0578 55.4456C14.1911 55.4456 14.7578 56.1122 14.7578 57.4456V60.1956H13.9878V57.5956C13.9878 57.0956 13.9111 56.7256 13.7578 56.4856C13.6044 56.2389 13.3211 56.1156 12.9078 56.1156C12.4944 56.1156 12.1511 56.2822 11.8778 56.6156C11.6111 56.9489 11.4778 57.3522 11.4778 57.8256ZM16.6351 56.2156H15.8651V55.5956H16.6351V54.9856C16.6351 54.6189 16.7418 54.3156 16.9551 54.0756C17.1751 53.8356 17.4885 53.7156 17.8951 53.7156C18.2218 53.7156 18.5051 53.7756 18.7451 53.8956L18.6051 54.4756C18.4385 54.4089 18.2318 54.3756 17.9851 54.3756C17.7651 54.3756 17.6118 54.4422 17.5251 54.5756C17.4451 54.7022 17.4051 54.9022 17.4051 55.1756V55.5956H18.4151V56.2156H17.4051V60.1956H16.6351V56.2156ZM19.8473 59.6656C19.4206 59.2122 19.2073 58.6222 19.2073 57.8956C19.2073 57.1689 19.4206 56.5789 19.8473 56.1256C20.274 55.6722 20.8373 55.4456 21.5373 55.4456C22.2373 55.4456 22.8006 55.6722 23.2273 56.1256C23.654 56.5789 23.8673 57.1689 23.8673 57.8956C23.8673 58.6289 23.654 59.2222 23.2273 59.6756C22.8073 60.1222 22.244 60.3456 21.5373 60.3456C20.8373 60.3456 20.274 60.1189 19.8473 59.6656ZM19.9773 57.8956C19.9773 58.3956 20.1173 58.8156 20.3973 59.1556C20.684 59.4956 21.064 59.6656 21.5373 59.6656C22.0173 59.6656 22.3973 59.4989 22.6773 59.1656C22.9573 58.8256 23.0973 58.4022 23.0973 57.8956C23.0973 57.3889 22.9573 56.9656 22.6773 56.6256C22.3973 56.2856 22.0173 56.1156 21.5373 56.1156C21.064 56.1156 20.684 56.2856 20.3973 56.6256C20.1173 56.9656 19.9773 57.3889 19.9773 57.8956ZM25.843 58.0156V60.1956H25.073V55.5956H25.793V56.6956C26.093 55.8689 26.6463 55.4556 27.453 55.4556C27.693 55.4556 27.883 55.4956 28.023 55.5756L27.893 56.2456C27.7597 56.1989 27.613 56.1756 27.453 56.1756C26.9797 56.1756 26.593 56.3556 26.293 56.7156C25.993 57.0756 25.843 57.5089 25.843 58.0156ZM32.7455 57.7656V60.1956H31.9755V57.5956C31.9755 57.1089 31.9088 56.7456 31.7755 56.5056C31.6488 56.2589 31.4155 56.1356 31.0755 56.1356C30.7288 56.1356 30.4455 56.2889 30.2255 56.5956C30.0122 56.9022 29.9055 57.2922 29.9055 57.7656V60.1956H29.1355V55.5956H29.8555V56.4856C30.1822 55.7922 30.6522 55.4456 31.2655 55.4456C31.9788 55.4456 32.4222 55.7989 32.5955 56.5056H32.6455C32.7855 56.1522 32.9855 55.8889 33.2455 55.7156C33.5055 55.5356 33.7922 55.4456 34.1055 55.4456C35.0922 55.4456 35.5855 56.1122 35.5855 57.4456V60.1956H34.8155V57.5956C34.8155 57.1089 34.7488 56.7456 34.6155 56.5056C34.4888 56.2589 34.2555 56.1356 33.9155 56.1356C33.5688 56.1356 33.2855 56.2889 33.0655 56.5956C32.8522 56.9022 32.7455 57.2922 32.7455 57.7656ZM37.4152 56.6256L37.0452 56.1156C37.5785 55.6689 38.1719 55.4456 38.8252 55.4456C39.3985 55.4456 39.8352 55.6022 40.1352 55.9156C40.4352 56.2289 40.5852 56.6989 40.5852 57.3256V59.2656C40.5852 59.4522 40.6152 59.5789 40.6752 59.6456C40.7419 59.7056 40.8652 59.7322 41.0452 59.7256V60.3056C40.7652 60.3322 40.5519 60.3256 40.4052 60.2856C40.1052 60.1989 39.9252 60.0122 39.8652 59.7256C39.4252 60.1389 38.8785 60.3456 38.2252 60.3456C37.7585 60.3456 37.3852 60.2189 37.1052 59.9656C36.8319 59.7122 36.6952 59.3822 36.6952 58.9756C36.6952 58.7556 36.7319 58.5589 36.8052 58.3856C36.8785 58.2056 36.9719 58.0589 37.0852 57.9456C37.2052 57.8322 37.3552 57.7356 37.5352 57.6556C37.7152 57.5689 37.8885 57.5056 38.0552 57.4656C38.2219 57.4189 38.4185 57.3856 38.6452 57.3656C38.8785 57.3389 39.0752 57.3222 39.2352 57.3156C39.4019 57.3089 39.5952 57.3056 39.8152 57.3056C39.8285 56.9456 39.7485 56.6556 39.5752 56.4356C39.4085 56.2089 39.1519 56.0956 38.8052 56.0956C38.3052 56.0956 37.8419 56.2722 37.4152 56.6256ZM39.8152 59.0756V57.9056C39.3352 57.9056 38.9352 57.9322 38.6152 57.9856C38.3019 58.0322 38.0652 58.1056 37.9052 58.2056C37.7519 58.2989 37.6452 58.4056 37.5852 58.5256C37.5252 58.6389 37.4952 58.7789 37.4952 58.9456C37.4952 59.1856 37.5752 59.3756 37.7352 59.5156C37.9019 59.6489 38.1352 59.7156 38.4352 59.7156C38.9285 59.7156 39.3885 59.5022 39.8152 59.0756ZM41.9531 55.5956H42.5631V54.3956H43.3331V55.5956H44.2331V56.2156H43.3331V58.8856C43.3331 59.0456 43.3364 59.1622 43.3431 59.2356C43.3498 59.3089 43.3664 59.3889 43.3931 59.4756C43.4198 59.5622 43.4631 59.6222 43.5231 59.6556C43.5898 59.6822 43.6764 59.6956 43.7831 59.6956C43.8698 59.6956 44.0298 59.6722 44.2631 59.6256L44.3731 60.2056C44.2131 60.2989 43.9631 60.3456 43.6231 60.3456C43.2031 60.3456 42.9198 60.2356 42.7731 60.0156C42.6331 59.7956 42.5631 59.4822 42.5631 59.0756V56.2156H41.9531V55.5956ZM45.6785 60.1956V55.5956H46.4485V60.1956H45.6785ZM45.6885 54.3856C45.5951 54.2856 45.5485 54.1622 45.5485 54.0156C45.5485 53.8689 45.5951 53.7456 45.6885 53.6456C45.7885 53.5456 45.9118 53.4956 46.0585 53.4956C46.2051 53.4956 46.3285 53.5456 46.4285 53.6456C46.5285 53.7456 46.5785 53.8689 46.5785 54.0156C46.5785 54.1622 46.5285 54.2856 46.4285 54.3856C46.3285 54.4789 46.2051 54.5256 46.0585 54.5256C45.9118 54.5256 45.7885 54.4789 45.6885 54.3856ZM48.2946 59.6656C47.8679 59.2122 47.6546 58.6222 47.6546 57.8956C47.6546 57.1689 47.8679 56.5789 48.2946 56.1256C48.7212 55.6722 49.2846 55.4456 49.9846 55.4456C50.6846 55.4456 51.2479 55.6722 51.6746 56.1256C52.1012 56.5789 52.3146 57.1689 52.3146 57.8956C52.3146 58.6289 52.1012 59.2222 51.6746 59.6756C51.2546 60.1222 50.6912 60.3456 49.9846 60.3456C49.2846 60.3456 48.7212 60.1189 48.2946 59.6656ZM48.4246 57.8956C48.4246 58.3956 48.5646 58.8156 48.8446 59.1556C49.1312 59.4956 49.5112 59.6656 49.9846 59.6656C50.4646 59.6656 50.8446 59.4989 51.1246 59.1656C51.4046 58.8256 51.5446 58.4022 51.5446 57.8956C51.5446 57.3889 51.4046 56.9656 51.1246 56.6256C50.8446 56.2856 50.4646 56.1156 49.9846 56.1156C49.5112 56.1156 49.1312 56.2856 48.8446 56.6256C48.5646 56.9656 48.4246 57.3889 48.4246 57.8956ZM54.2903 57.8256V60.1956H53.5203V55.5956H54.2203V56.5356C54.3936 56.1556 54.6269 55.8789 54.9203 55.7056C55.2203 55.5322 55.5369 55.4456 55.8703 55.4456C57.0036 55.4456 57.5703 56.1122 57.5703 57.4456V60.1956H56.8003V57.5956C56.8003 57.0956 56.7236 56.7256 56.5703 56.4856C56.4169 56.2389 56.1336 56.1156 55.7203 56.1156C55.3069 56.1156 54.9636 56.2822 54.6903 56.6156C54.4236 56.9489 54.2903 57.3522 54.2903 57.8256Z" fill="black"/>
</svg>
