<svg width="42" height="42" viewBox="0 0 42 42" fill="none" xmlns="http://www.w3.org/2000/svg">
<circle cx="21" cy="21" r="21" fill="#EEF2F5"/>
<path d="M31.9999 26.2339C31.8763 26.3927 31.7675 26.5663 31.6259 26.7083C30.6109 27.7285 29.5877 28.7411 28.5705 29.7592C28.3703 29.9596 28.1423 30.0518 27.8661 29.971C27.3805 29.8285 27.2416 29.2444 27.6069 28.8727C28.0805 28.3912 28.5617 27.9174 29.0408 27.4419C29.2677 27.217 29.498 26.9954 29.7752 26.7246C29.6418 26.7246 29.5713 26.7263 29.5013 26.7246C28.6481 26.7001 27.7874 26.7405 26.9435 26.6389C24.2206 26.3119 22.0217 25.0318 20.3313 22.8816C20.2892 22.8281 20.2481 22.7746 20.1951 22.7058C20.1541 22.75 20.1163 22.785 20.0852 22.8254C18.3516 25.0635 16.0733 26.3474 13.2574 26.669C12.7231 26.7301 12.1795 26.7164 11.6403 26.7214C11.3122 26.7241 11.1274 26.509 10.9988 26.235V25.908C11.158 25.5346 11.4418 25.4058 11.8443 25.4101C12.3551 25.4156 12.8719 25.4052 13.3767 25.3343C15.9032 24.9783 17.8802 23.7304 19.325 21.6381C19.3983 21.5322 19.3977 21.4585 19.3256 21.3515C18.6327 20.3252 17.7653 19.4802 16.7082 18.8311C15.2169 17.9151 13.5888 17.5144 11.8454 17.5761C11.4418 17.5903 11.1596 17.4527 10.9988 17.0815V16.7546C11.1574 16.3806 11.4434 16.2649 11.8438 16.2573C13.9301 16.218 15.8595 16.7196 17.6133 17.8567C18.5556 18.4676 19.3649 19.2225 20.0469 20.1134C20.0874 20.1663 20.13 20.2182 20.1825 20.2848C20.229 20.2297 20.2689 20.1865 20.3045 20.1401C22.0392 17.9129 24.3152 16.6394 27.1229 16.3178C27.6031 16.2627 28.0914 16.2753 28.576 16.2654C28.9506 16.2578 29.3257 16.2638 29.7517 16.2638C29.6746 16.1836 29.627 16.1317 29.5773 16.0826C28.9254 15.4324 28.2724 14.7828 27.6217 14.1316C27.4324 13.9422 27.3652 13.7167 27.4477 13.4579C27.527 13.2085 27.7042 13.0611 27.9602 13.0131C28.1762 12.9727 28.3703 13.0343 28.5245 13.1872C29.6232 14.2784 30.7202 15.3707 31.814 16.4669C31.8927 16.5455 31.9381 16.6574 31.9994 16.7535V17.0805C31.8752 17.2393 31.7664 17.4129 31.6253 17.5548C30.7405 18.4457 29.8491 19.3295 28.9593 20.2155C28.8045 20.3694 28.6558 20.5305 28.4928 20.6751C28.1259 21.001 27.5517 20.8378 27.4242 20.3705C27.3515 20.1036 27.4379 19.8798 27.6348 19.686C28.2856 19.0435 28.9314 18.3966 29.5789 17.7508C29.6281 17.7017 29.6752 17.6504 29.7534 17.5685C28.6908 17.5887 27.6774 17.5073 26.675 17.6946C24.2857 18.14 22.4056 19.3623 21.0389 21.3673C20.9755 21.4601 20.9727 21.5245 21.0378 21.619C22.4761 23.7184 24.4514 24.9838 26.9796 25.3244C27.8207 25.438 28.6842 25.391 29.5368 25.4172C29.5942 25.4189 29.6522 25.4172 29.749 25.4172C29.6713 25.3348 29.6276 25.2851 29.5806 25.2382C28.938 24.5973 28.2965 23.9553 27.6512 23.3172C27.4806 23.148 27.3843 22.9542 27.4231 22.7129C27.4647 22.4569 27.6107 22.2757 27.8595 22.1932C28.1341 22.1015 28.3676 22.1812 28.5688 22.3821C29.5882 23.3991 30.6103 24.4128 31.6259 25.4331C31.767 25.575 31.8758 25.7486 31.9999 25.9074V26.2344V26.2339Z" fill="black"/>
</svg>
